<?xml version="1.0" standalone="no"?>
<!DOCTYPE svg PUBLIC "-//W3C//DTD SVG 20010904//EN"
 "http://www.w3.org/TR/2001/REC-SVG-20010904/DTD/svg10.dtd">
<svg version="1.0" xmlns="http://www.w3.org/2000/svg"
 width="512.000000pt" height="295.000000pt" viewBox="0 0 512.000000 295.000000"
 preserveAspectRatio="xMidYMid meet">

<g transform="translate(0.000000,295.000000) scale(0.100000,-0.100000)"
fill="#000000" stroke="none">
<path d="M815 2911 c-51 -13 -111 -49 -139 -82 -64 -76 -61 -41 -66 -654 l-5
-559 -72 91 c-88 111 -124 140 -195 155 -100 21 -205 -28 -248 -116 -35 -73
-30 -138 23 -313 26 -81 64 -210 87 -286 60 -203 76 -242 106 -255 36 -17 58
-15 88 9 17 14 26 30 26 49 0 16 -43 171 -95 345 -52 174 -95 328 -95 341 0
54 47 87 90 64 11 -6 87 -98 170 -204 82 -107 157 -196 166 -200 32 -12 66 -5
89 19 l25 24 0 666 c0 736 -2 713 63 740 43 18 79 9 114 -27 l28 -29 5 -530
c5 -511 6 -531 24 -545 34 -24 91 -18 115 12 18 23 21 41 21 135 0 120 10 153
51 175 41 21 80 17 114 -10 27 -22 30 -30 36 -106 5 -74 9 -86 33 -107 53 -45
121 -15 133 60 9 57 43 87 99 87 31 0 51 -7 71 -24 25 -22 28 -32 34 -111 5
-80 8 -90 33 -111 15 -13 38 -24 50 -24 29 0 76 36 76 58 0 46 23 94 53 112
48 30 83 26 123 -14 l34 -34 0 -406 c0 -357 -4 -438 -22 -398 -6 14 -123 109
-187 152 -89 59 -234 126 -327 151 -98 26 -274 35 -371 20 -225 -35 -458 -154
-674 -345 -101 -89 -139 -137 -139 -177 0 -37 105 -219 179 -311 124 -155 304
-274 506 -334 83 -25 104 -27 265 -27 149 0 187 3 255 21 163 45 319 136 431
253 84 89 124 150 124 192 0 57 -58 93 -115 71 -8 -4 -30 -27 -47 -53 -104
-151 -267 -264 -446 -308 -105 -26 -315 -23 -415 5 -220 63 -420 224 -528 425
l-32 60 39 34 c102 88 175 145 244 187 41 25 77 46 81 46 3 0 0 -23 -7 -52
-39 -150 10 -315 126 -421 100 -91 226 -130 353 -109 96 17 166 50 230 111
112 106 160 262 126 410 -5 24 -8 45 -6 48 12 11 148 -97 256 -204 106 -105
128 -123 156 -123 42 0 61 16 82 70 16 40 18 97 21 533 3 426 1 495 -13 537
-21 62 -90 133 -152 154 -61 21 -148 20 -197 -2 l-40 -18 -34 37 c-70 78 -200
107 -296 65 l-40 -17 -24 31 c-13 16 -45 42 -70 58 -42 24 -57 27 -139 27
l-92 0 -3 310 c-3 298 -4 312 -25 351 -28 53 -74 99 -123 124 -44 22 -131 33
-175 21z m612 -1861 c161 -80 200 -280 82 -414 -135 -153 -396 -97 -454 97
-19 63 -19 91 0 153 22 75 67 128 137 163 84 42 152 42 235 1z"/>
<path d="M2954 2075 c-8 -20 4 -35 27 -35 14 0 19 7 19 25 0 18 -5 25 -20 25
-11 0 -23 -7 -26 -15z"/>
<path d="M2725 2060 c-84 -35 -115 -170 -57 -249 46 -64 164 -81 217 -31 28
26 33 60 10 60 -8 0 -15 -4 -15 -10 0 -14 -55 -40 -85 -40 -58 0 -115 59 -115
119 0 34 26 87 51 105 35 24 101 21 131 -7 28 -26 48 -25 48 4 0 44 -120 76
-185 49z"/>
<path d="M3070 2016 c0 -15 -7 -26 -20 -29 -11 -3 -20 -10 -20 -17 0 -7 9 -14
20 -17 18 -5 20 -14 20 -74 0 -84 12 -117 45 -125 39 -10 75 3 75 27 0 16 -3
18 -19 9 -43 -23 -61 6 -61 102 l0 57 38 3 c25 2 37 8 37 18 0 10 -12 16 -37
18 -33 3 -38 7 -38 28 0 17 -5 24 -20 24 -14 0 -20 -7 -20 -24z"/>
<path d="M3730 2017 c0 -14 -7 -27 -15 -31 -8 -3 -15 -12 -15 -21 0 -8 7 -15
15 -15 12 0 15 -14 15 -69 0 -86 12 -118 45 -127 39 -10 75 3 75 27 0 16 -3
18 -19 9 -40 -21 -51 -4 -51 81 l0 79 36 0 c28 0 35 3 32 18 -2 11 -14 18 -35
20 -24 2 -33 9 -35 25 -2 14 -11 23 -25 25 -19 3 -23 -1 -23 -21z"/>
<path d="M2962 1873 c2 -97 6 -118 18 -118 12 0 15 19 15 115 0 102 -2 115
-18 118 -16 3 -17 -6 -15 -115z"/>
<path d="M3273 1980 c-65 -26 -82 -145 -30 -198 19 -19 39 -26 80 -30 46 -4
57 -1 83 21 22 20 26 28 17 38 -9 9 -18 7 -39 -10 -40 -31 -89 -24 -121 18
-27 36 -16 41 82 41 79 0 95 3 95 15 0 29 -28 82 -51 99 -25 17 -80 20 -116 6z
m94 -35 c11 -8 23 -24 26 -35 5 -19 1 -20 -69 -20 -81 0 -88 7 -49 45 27 28
61 32 92 10z"/>
<path d="M3503 1955 c-34 -34 -35 -38 -31 -91 6 -73 36 -105 105 -111 38 -4
53 -1 72 14 28 23 21 49 -9 33 -36 -20 -87 -12 -109 16 -57 72 12 164 95 129
31 -13 36 -13 41 2 10 24 -25 43 -80 43 -43 0 -53 -4 -84 -35z"/>
<path d="M2759 1475 c-29 -9 -59 -29 -78 -50 -26 -30 -31 -44 -31 -86 0 -90
44 -131 170 -159 70 -16 100 -34 100 -63 0 -28 -9 -41 -37 -56 -47 -24 -141
-5 -188 39 -22 21 -36 17 -54 -18 -10 -19 -10 -28 3 -48 24 -36 55 -52 122
-63 156 -25 264 36 264 147 0 84 -50 128 -176 158 -103 23 -126 53 -79 99 39
40 130 31 182 -17 22 -21 23 -21 43 -3 20 18 25 41 14 70 -19 47 -170 77 -255
50z"/>
<path d="M3267 1479 c-53 -12 -87 -32 -124 -71 -47 -48 -66 -102 -66 -183 0
-114 53 -201 148 -241 53 -22 157 -22 213 1 85 35 118 112 61 144 -26 14 -28
14 -54 -17 -45 -54 -139 -63 -196 -19 -58 45 -76 145 -38 218 41 82 153 100
225 37 39 -34 69 -31 85 9 17 47 -40 105 -121 122 -58 13 -80 13 -133 0z"/>
<path d="M3736 1458 c-7 -13 -51 -119 -96 -237 -89 -228 -91 -243 -36 -249 37
-5 61 19 82 79 l18 49 97 0 97 0 16 -47 c9 -25 23 -55 33 -65 19 -21 62 -24
88 -4 17 12 14 24 -69 232 -48 120 -94 229 -102 242 -12 18 -24 22 -64 22 -41
0 -52 -4 -64 -22z m101 -175 c18 -48 30 -90 27 -95 -3 -4 -32 -8 -64 -8 -32 0
-61 4 -64 8 -5 9 56 182 64 182 3 0 19 -39 37 -87z"/>
<path d="M4123 1465 c-23 -16 -23 -19 -23 -239 0 -196 2 -225 17 -237 22 -19
201 -18 266 0 111 32 173 129 165 261 -5 94 -42 154 -120 194 -50 25 -70 29
-170 33 -94 4 -117 2 -135 -12z m248 -107 c47 -26 69 -70 69 -136 0 -94 -66
-152 -172 -152 l-58 0 0 155 0 155 61 0 c44 0 72 -6 100 -22z"/>
<path d="M4749 1468 c-9 -7 -55 -116 -104 -242 -83 -217 -87 -230 -69 -243 44
-32 84 -10 112 62 l20 50 97 0 97 0 20 -53 c13 -34 28 -57 43 -64 28 -13 74
-3 81 17 7 18 -164 456 -185 473 -8 6 -33 12 -56 12 -23 0 -48 -6 -56 -12z
m90 -184 c17 -47 29 -89 26 -93 -5 -9 -112 -14 -125 -6 -4 3 4 38 19 78 15 39
31 80 34 90 4 9 8 17 11 17 2 0 18 -39 35 -86z"/>
</g>
</svg>
